<?xml version="1.0" encoding="UTF-8"?>
<svg id="Layer_1" xmlns="http://www.w3.org/2000/svg" version="1.1" viewBox="0 0 700 1000">
  <!-- Generator: Adobe Illustrator 29.8.3, SVG Export Plug-In . SVG Version: 2.1.1 Build 3)  -->
  <defs>
    <style>
      .st0 {
        fill: #5ebfc1;
      }

      .st1 {
        fill: #ef5858;
      }

      .st2 {
        fill: #111325;
      }
    </style>
  </defs>
  <polygon class="st1" points="621.95 900.05 72.6 900.05 72.6 95.08 494.09 95.08 621.95 219.32 621.95 900.05"/>
  <path class="st2" d="M630.01,905.36c-11.59,12.12-27.8,19.13-44.37,21.57H120.93c-35.67-3.09-64.11-31.32-67.09-67.09V140.09c4.35-37.3,32.9-64.4,70.41-67.09h352.72c36.95.06,56.72,29.92,80.93,52.13,27.25,34.41,88.94,70.31,92.6,116.98v619.95c-2.13,16.14-9.28,31.57-20.49,43.3ZM585.53,210.04c-31.23-25.88-59.22-65.02-90.3-89.88-4.1-3.28-8.72-6.09-13.97-7.1l-357.01-.14c-14.93.94-29.18,15.9-30.5,30.49v714.21c1.07,14.1,14.06,28.1,28.28,29.39h460.28c15.58-1.84,26.68-13.91,28.28-29.39l-.02-613.29c-3.06-14.75-14.91-24.4-25.04-34.3Z"/>
  <ellipse class="st0" cx="350.99" cy="499.97" rx="212.91" ry="219.46"/>
  <path class="st2" d="M339.75,267.43c182.84-10.39,306.13,187.37,215.13,347.09-74,129.88-249.19,158.3-360.18,56.79-152.31-139.28-60.38-392.2,145.05-403.88ZM339.97,396.84v-104.24c-37.37,12.92-57.46,54.25-69.9,89.2,22.43,8.26,45.99,13.34,69.9,15.03ZM364.37,292.61v104.24c23.9-1.67,47.43-6.8,69.88-14.99-12.95-34.85-32.24-76.33-69.88-89.24ZM283.42,303.71c-27.38,8.81-53,24.51-73.17,44.9,3.71,3.66,35.89,24.04,37.67,22.73,7.29-24.57,20.62-46.98,35.5-67.63ZM456.42,371.34c5.25-1.22,37.69-20.24,37.67-22.73-20.02-20.64-45.83-35.94-73.17-44.9,15.14,20.63,27.73,43.17,35.5,67.63ZM226.87,487.77c1.22-30.71,4.04-62.03,13.06-91.52l-46.72-29.27c-29.16,32.45-46.97,76.98-48.39,120.79h82.06ZM477.48,487.77h82.06c-1.52-44.53-19.78-86.49-47.22-120.95l-47.83,29.41c7.89,29.79,12.48,60.7,12.99,91.54ZM339.97,421.24c-26.52-1.76-52.59-6.78-77.61-15.53-5.87,26.95-11.22,54.33-11.1,82.06h87.05l1.66-1.66v-64.87ZM364.37,421.24v66.53h88.71c-.57-27.73-5.46-55.02-11.14-82.03-25.04,8.87-50.99,13.85-77.57,15.5ZM226.87,512.17h-83.17c4,44.27,19.8,87.54,49.47,120.82,14.94-10.68,29.92-21.7,47-28.83-9.12-29.64-12.27-61.07-13.3-91.99ZM339.97,512.17h-88.71c-.47,27.78,5.81,55,11.1,82.06,24.96-8.72,51.06-14.52,77.62-15.53v-66.53ZM453.08,512.17h-88.71v66.53c26.49.78,52.61,7.16,77.62,15.53,5.04-27.1,11.11-54.34,11.1-82.06ZM559.53,512.17h-82.06c-.8,30.81-4.81,61.83-12.99,91.54l46.82,29.12c28.65-33.33,46.53-76.49,48.22-120.66ZM339.97,603.1c-23.83,1.66-47.7,6.38-69.93,15.07,9.71,26.62,24.02,57.26,46.06,75.89,6.42,5.42,15.23,11.74,23.87,12.17v-103.13ZM364.37,603.1v104.24c37.86-13,56.84-54.22,69.89-89.18-22.21-8.76-46.06-13.47-69.89-15.05ZM420.92,696.23c27.21-9.63,52.31-25.02,73.17-44.9.01-2.23-32.63-22.26-37.67-23.84-6.91,25.02-20.55,47.79-35.49,68.74ZM247.89,628.64c-1.96-1.4-18.13,8.79-20.93,10.59-3.3,2.13-12.4,7.52-14.48,9.91-3.31,3.79,5.14,8.93,8.32,11.59,18.41,15.38,40.14,27.24,62.62,35.5-14.72-20.78-28.04-43.08-35.53-67.6Z"/>
</svg>
